<?xml version="1.0" standalone="no"?>
<!DOCTYPE svg PUBLIC "-//W3C//DTD SVG 20010904//EN"
 "http://www.w3.org/TR/2001/REC-SVG-20010904/DTD/svg10.dtd">
<svg version="1.0" xmlns="http://www.w3.org/2000/svg"
 width="1023.000000pt" height="1023.000000pt" viewBox="0 0 1023.000000 1023.000000"
 preserveAspectRatio="xMidYMid meet">
<metadata>
Created by potrace 1.14, written by Peter Selinger 2001-2017
</metadata>
<g transform="translate(0.000000,1023.000000) scale(0.100000,-0.100000)"
fill="#000000" stroke="none">
<path d="M4868 8125 c-2 -1 -70 -6 -153 -9 -82 -4 -166 -9 -185 -10 -19 -2
-69 -7 -110 -10 -41 -4 -91 -9 -110 -11 -19 -3 -57 -7 -85 -10 -27 -3 -66 -7
-85 -10 -19 -3 -53 -7 -76 -10 -39 -4 -257 -39 -319 -50 -224 -42 -495 -106
-695 -165 -58 -17 -109 -32 -115 -34 -46 -10 -300 -100 -430 -151 -871 -343
-1534 -834 -1919 -1425 -301 -460 -412 -940 -335 -1440 54 -353 226 -725 483
-1044 44 -54 89 -108 100 -120 139 -146 184 -191 261 -260 50 -45 131 -113
180 -151 50 -38 95 -73 100 -78 186 -144 585 -375 865 -500 331 -149 735 -286
1090 -371 176 -42 203 -48 273 -60 15 -3 35 -7 45 -10 9 -3 35 -7 57 -11 22
-3 76 -12 120 -20 44 -8 98 -17 120 -20 22 -3 51 -8 65 -10 14 -3 45 -7 70
-10 25 -3 56 -7 70 -10 14 -2 52 -7 85 -10 33 -3 74 -7 90 -9 17 -3 71 -7 120
-11 50 -4 106 -9 125 -11 83 -8 360 -17 545 -18 345 0 638 16 950 55 50 6 108
13 130 15 22 2 65 9 95 14 30 5 71 12 90 15 575 92 1175 270 1655 490 154 71
375 185 455 235 15 9 103 62 150 90 107 65 332 231 469 347 104 88 327 318
411 423 240 301 418 667 475 975 27 146 33 222 33 385 0 235 -31 417 -108 630
-23 63 -44 125 -47 138 -3 12 -9 22 -14 22 -5 0 -9 6 -9 13 0 17 -76 166 -127
251 -176 288 -410 548 -723 801 -71 57 -71 57 -145 111 -556 400 -1280 709
-2074 884 -138 30 -172 37 -226 46 -16 3 -77 14 -135 24 -58 11 -142 24 -187
30 -46 6 -97 13 -115 15 -18 3 -55 7 -83 10 -27 3 -66 7 -85 10 -19 3 -62 7
-95 10 -33 2 -91 7 -130 10 -38 4 -104 8 -145 11 -78 5 -707 13 -712 9z m582
-159 c91 -3 192 -8 225 -11 99 -8 288 -26 320 -30 17 -3 53 -7 80 -10 28 -3
97 -13 155 -21 58 -9 119 -18 135 -20 17 -2 41 -6 55 -9 14 -3 52 -10 85 -15
33 -6 103 -20 155 -31 52 -11 102 -22 110 -24 351 -74 848 -236 1175 -383 123
-55 403 -200 495 -255 129 -79 224 -139 252 -159 13 -10 70 -52 128 -95 58
-42 107 -79 110 -82 3 -4 34 -30 70 -60 105 -88 308 -297 403 -416 136 -170
286 -422 342 -575 44 -120 80 -238 91 -295 2 -11 7 -33 10 -50 4 -16 8 -43 10
-60 2 -16 7 -58 12 -93 10 -70 9 -308 -2 -392 -52 -403 -247 -807 -556 -1154
-145 -164 -342 -341 -530 -478 -98 -71 -354 -238 -365 -238 -3 0 -22 -11 -43
-23 -20 -13 -90 -52 -155 -85 -131 -68 -128 -70 -81 35 12 29 34 67 48 85 91
120 84 267 -17 336 l-40 29 -3 81 c-6 197 -81 343 -194 376 -27 8 -57 13 -67
11 -10 -2 -27 -4 -39 -4 -32 -1 -111 -58 -135 -97 -26 -43 -45 -113 -48 -184
-1 -30 -16 -95 -33 -145 -31 -95 -40 -204 -20 -255 5 -14 10 -27 10 -30 0 -15
38 -93 74 -153 51 -85 84 -177 87 -243 l2 -52 -93 -36 c-176 -67 -253 -92
-277 -88 -34 5 -112 87 -174 184 -93 142 -100 162 -103 263 -2 84 -8 149 -19
185 -2 8 -6 26 -9 40 -14 71 -73 210 -89 210 -6 0 -8 -43 -4 -122 7 -133 11
-166 32 -234 7 -24 11 -44 9 -44 -6 0 -115 114 -129 135 -8 11 -23 58 -34 105
-25 103 -54 176 -98 252 -51 88 -57 85 -50 -23 8 -113 12 -136 37 -207 28 -80
76 -155 148 -231 69 -73 144 -177 193 -267 17 -32 47 -80 65 -106 19 -27 32
-48 29 -48 -14 0 -93 57 -123 88 -34 35 -122 164 -122 179 0 17 -98 160 -134
195 -40 37 -112 76 -122 65 -4 -3 12 -48 34 -99 22 -51 52 -123 65 -159 56
-148 153 -249 279 -288 20 -7 71 -32 114 -57 43 -24 84 -44 91 -44 16 0 25
-16 10 -18 -7 0 -57 -14 -112 -31 -55 -17 -111 -33 -125 -36 -14 -2 -41 -9
-60 -15 -42 -13 -320 -76 -370 -85 -19 -3 -54 -10 -78 -16 -23 -5 -59 -11 -78
-14 -20 -2 -44 -6 -53 -9 -9 -3 -38 -7 -65 -11 -27 -3 -52 -8 -55 -10 -3 -1
-35 -6 -71 -10 -36 -4 -73 -9 -83 -11 -10 -2 -45 -6 -78 -9 -33 -4 -70 -8 -81
-10 -12 -3 -60 -7 -107 -11 -47 -3 -99 -7 -116 -10 -97 -12 -322 -19 -625 -19
-350 0 -518 7 -746 30 -38 3 -89 8 -114 11 -38 3 -138 17 -295 40 -455 65
-1048 221 -1420 374 -11 4 -54 21 -95 38 -532 214 -1019 525 -1375 876 -362
359 -586 746 -669 1158 -41 200 -43 470 -6 673 31 165 103 373 187 534 55 106
198 329 249 386 14 17 47 56 72 87 90 111 318 326 470 443 7 6 18 15 25 20 21
19 210 150 272 189 33 21 72 47 87 57 15 11 30 19 32 19 3 0 34 17 68 38 161
97 505 257 773 359 216 83 658 211 885 258 134 27 337 65 380 70 30 4 57 8 60
10 3 2 28 6 55 9 28 4 61 9 75 11 110 16 249 31 388 40 51 4 101 8 112 10 10
2 99 7 197 10 98 4 179 8 180 9 3 3 320 -2 473 -8z m2444 -4367 c4 -101 17
-198 35 -269 15 -57 33 -115 37 -119 2 -2 19 10 39 28 56 49 72 42 30 -14 -33
-43 -45 -82 -51 -175 -6 -86 -35 -203 -65 -261 -26 -52 -42 -42 -24 16 27 92
5 187 -67 293 -17 24 -27 46 -24 49 3 4 31 -19 62 -50 32 -32 58 -57 60 -57
11 0 -10 127 -40 245 -43 167 -51 188 -88 239 -15 22 -26 42 -23 44 2 2 19 -5
38 -17 l34 -21 7 71 c6 65 21 117 32 107 2 -3 6 -52 8 -109z"/>
<path d="M8530 5515 l0 -276 -22 21 c-65 60 -232 76 -333 31 -63 -28 -120 -82
-152 -146 -32 -61 -43 -197 -23 -272 27 -102 87 -178 170 -216 84 -39 229 -28
318 24 42 24 42 24 42 -11 l0 -31 102 3 101 3 -1 540 c0 297 -1 555 -1 573
l-1 32 -100 0 -100 0 0 -275z m-95 -376 c72 -23 95 -63 95 -165 0 -64 -4 -84
-22 -110 -29 -43 -85 -67 -149 -67 -110 2 -186 116 -156 234 5 21 24 53 43 71
54 53 108 64 189 37z"/>
<path d="M783 5197 l-1 -557 102 0 102 0 -1 223 c0 122 1 228 3 234 2 7 77
-88 165 -212 89 -124 165 -225 168 -225 4 0 83 108 175 241 l169 241 3 -251 2
-251 105 0 105 0 1 28 c2 119 1 1074 -2 1077 -3 3 -227 -300 -279 -378 -69
-104 -273 -376 -279 -373 -3 3 -24 31 -46 63 -22 32 -45 65 -52 73 -7 8 -102
143 -212 300 -109 157 -205 294 -213 304 -13 17 -15 -50 -15 -537z"/>
<path d="M3258 5668 c-20 -46 -126 -293 -237 -549 -110 -257 -201 -469 -201
-473 0 -3 46 -6 103 -6 l102 0 41 103 40 102 179 0 179 0 41 -102 40 -103 122
0 122 0 -14 33 c-20 47 -183 425 -206 477 -11 25 -73 168 -138 319 -64 151
-122 276 -127 278 -6 2 -26 -34 -46 -79z m79 -496 c23 -59 45 -115 49 -124 6
-16 -3 -18 -101 -18 -84 0 -105 3 -98 13 5 6 29 63 53 124 25 62 47 113 50
113 3 0 24 -48 47 -108z"/>
<path d="M3948 5703 c-4 -7 -3 -1034 1 -1055 0 -5 160 -8 355 -8 l353 0 0 100
0 100 -251 2 -251 3 0 430 0 430 -102 3 c-56 1 -103 -1 -105 -5z"/>
<path d="M4877 5703 c-2 -5 -3 -244 -3 -533 l1 -525 357 -3 356 -2 1 100 1
100 -252 2 -252 3 -1 432 0 433 -102 0 c-56 0 -104 -3 -106 -7z"/>
<path d="M6002 5700 c-103 -25 -191 -106 -218 -198 -46 -156 20 -299 170 -367
28 -12 81 -37 119 -53 128 -58 166 -103 146 -175 -27 -99 -191 -113 -348 -31
-36 19 -65 33 -66 31 -40 -64 -85 -153 -82 -162 3 -6 32 -26 65 -43 147 -78
349 -93 474 -35 77 36 121 79 155 151 49 105 27 249 -51 334 -27 30 -101 76
-156 98 -158 61 -220 109 -220 169 0 112 141 143 304 67 44 -20 80 -35 81 -34
8 9 75 149 75 156 0 13 -104 62 -172 81 -68 19 -221 25 -276 11z"/>
<path d="M6679 5503 c0 -27 0 -87 0 -135 l1 -88 -50 0 -50 0 0 -80 0 -80 50 0
50 0 -1 -177 c0 -98 0 -206 0 -240 l1 -63 100 0 c97 0 100 1 101 23 0 12 1
120 1 240 l0 217 76 0 77 0 0 80 1 80 -77 0 -77 0 0 108 c0 59 -1 119 -1 135
l-1 27 -100 0 -100 0 -1 -47z"/>
<path d="M2040 5276 c0 -4 266 -554 280 -579 9 -14 -4 -51 -61 -175 -39 -86
-73 -163 -76 -169 -4 -10 19 -13 93 -13 l99 0 139 323 c144 332 155 358 225
515 22 51 41 95 41 98 0 3 -41 3 -92 2 l-91 -3 -78 -175 c-43 -96 -81 -176
-86 -177 -4 -2 -44 78 -88 177 l-80 180 -112 0 c-62 0 -113 -2 -113 -4z"/>
<path d="M8860 5275 c0 -5 42 -93 203 -424 l84 -173 -73 -164 c-41 -89 -74
-166 -74 -169 0 -3 43 -4 96 -3 l97 3 176 405 c97 223 189 433 203 468 l27 62
-92 0 -92 0 -49 -113 c-27 -61 -65 -146 -83 -187 l-34 -74 -82 184 -83 185
-112 3 c-62 1 -112 0 -112 -3z"/>
<path d="M7190 5025 c0 -196 3 -253 15 -281 55 -132 262 -153 380 -40 36 34
45 39 46 24 1 -10 3 -22 4 -28 1 -5 3 -21 4 -35 1 -25 2 -25 95 -25 l95 0 -1
315 0 315 -102 0 -101 0 -1 -142 c-1 -193 -11 -237 -61 -290 -47 -49 -137 -46
-161 6 -5 12 -10 96 -10 186 -1 91 -1 182 -2 203 l0 37 -100 0 -100 0 0 -245z"/>
<path d="M7315 4004 c-70 -36 -111 -96 -95 -139 10 -26 10 -26 94 -19 54 4
101 2 134 -6 87 -20 115 5 82 77 -40 89 -137 128 -215 87z"/>
<path d="M7014 3811 c-51 -23 -86 -76 -86 -134 -1 -55 9 -85 33 -97 25 -14 41
-4 78 47 18 25 55 56 87 74 31 18 58 38 61 46 11 28 -18 61 -63 72 -56 14 -62
14 -110 -8z"/>
<path d="M7320 3746 c-36 -53 -38 -89 -8 -110 31 -22 51 -20 77 7 27 30 34
122 11 137 -29 18 -49 10 -80 -34z"/>
<path d="M7138 3633 l-25 -16 19 -56 c11 -31 24 -62 30 -68 15 -19 62 -16 81
5 27 30 19 70 -23 112 -34 34 -54 40 -82 23z"/>
<path d="M7489 3470 c-57 -37 -138 -123 -165 -175 -50 -93 -60 -191 -29 -288
21 -69 65 -121 159 -192 39 -29 92 -73 117 -97 53 -50 81 -56 107 -23 28 36
12 119 -41 215 -79 144 -105 203 -117 267 -15 78 -8 171 19 246 26 75 12 89
-50 47z m-83 -277 c16 -73 40 -130 78 -187 37 -54 66 -108 66 -121 0 -12 -19
-1 -58 35 -24 22 -57 47 -73 57 -34 20 -39 38 -8 30 16 -4 19 -2 13 11 -26 61
-43 123 -44 160 0 47 16 57 26 15z"/>
</g>
</svg>
